<mxfile host="app.diagrams.net" modified="2023-09-06T20:36:02.250Z" agent="Mozilla/5.0 (X11; Linux x86_64) AppleWebKit/537.36 (KHTML, like Gecko) Chrome/115.0.0.0 Safari/537.36" etag="ShWv2VpSMmBMxYSSadLV" version="21.7.2" type="device">
  <diagram name="Page-1" id="2YBvvXClWsGukQMizWep">
    <mxGraphModel dx="1434" dy="774" grid="1" gridSize="10" guides="1" tooltips="1" connect="1" arrows="1" fold="1" page="1" pageScale="1" pageWidth="850" pageHeight="1100" math="0" shadow="0">
      <root>
        <mxCell id="0" />
        <mxCell id="1" parent="0" />
        <mxCell id="8C4lQhhiwzmuUXidtTxT-1" value=":User" style="shape=umlLifeline;perimeter=lifelinePerimeter;whiteSpace=wrap;html=1;container=0;dropTarget=0;collapsible=0;recursiveResize=0;outlineConnect=0;portConstraint=eastwest;newEdgeStyle={&quot;edgeStyle&quot;:&quot;elbowEdgeStyle&quot;,&quot;elbow&quot;:&quot;vertical&quot;,&quot;curved&quot;:0,&quot;rounded&quot;:0};" vertex="1" parent="1">
          <mxGeometry x="40" y="40" width="100" height="320" as="geometry" />
        </mxCell>
        <mxCell id="8C4lQhhiwzmuUXidtTxT-2" value="" style="html=1;points=[];perimeter=orthogonalPerimeter;outlineConnect=0;targetShapes=umlLifeline;portConstraint=eastwest;newEdgeStyle={&quot;edgeStyle&quot;:&quot;elbowEdgeStyle&quot;,&quot;elbow&quot;:&quot;vertical&quot;,&quot;curved&quot;:0,&quot;rounded&quot;:0};" vertex="1" parent="8C4lQhhiwzmuUXidtTxT-1">
          <mxGeometry x="45" y="80" width="10" height="140" as="geometry" />
        </mxCell>
        <mxCell id="8C4lQhhiwzmuUXidtTxT-3" value=":Frontend" style="shape=umlLifeline;perimeter=lifelinePerimeter;whiteSpace=wrap;html=1;container=0;dropTarget=0;collapsible=0;recursiveResize=0;outlineConnect=0;portConstraint=eastwest;newEdgeStyle={&quot;edgeStyle&quot;:&quot;elbowEdgeStyle&quot;,&quot;elbow&quot;:&quot;vertical&quot;,&quot;curved&quot;:0,&quot;rounded&quot;:0};" vertex="1" parent="1">
          <mxGeometry x="220" y="40" width="100" height="320" as="geometry" />
        </mxCell>
        <mxCell id="8C4lQhhiwzmuUXidtTxT-4" value="" style="html=1;points=[];perimeter=orthogonalPerimeter;outlineConnect=0;targetShapes=umlLifeline;portConstraint=eastwest;newEdgeStyle={&quot;edgeStyle&quot;:&quot;elbowEdgeStyle&quot;,&quot;elbow&quot;:&quot;vertical&quot;,&quot;curved&quot;:0,&quot;rounded&quot;:0};" vertex="1" parent="8C4lQhhiwzmuUXidtTxT-3">
          <mxGeometry x="45" y="80" width="10" height="170" as="geometry" />
        </mxCell>
        <mxCell id="8C4lQhhiwzmuUXidtTxT-9" value=":Kratos-X SM" style="shape=umlLifeline;perimeter=lifelinePerimeter;whiteSpace=wrap;html=1;container=0;dropTarget=0;collapsible=0;recursiveResize=0;outlineConnect=0;portConstraint=eastwest;newEdgeStyle={&quot;edgeStyle&quot;:&quot;elbowEdgeStyle&quot;,&quot;elbow&quot;:&quot;vertical&quot;,&quot;curved&quot;:0,&quot;rounded&quot;:0};" vertex="1" parent="1">
          <mxGeometry x="480" y="40" width="100" height="320" as="geometry" />
        </mxCell>
        <mxCell id="8C4lQhhiwzmuUXidtTxT-10" value="" style="html=1;points=[];perimeter=orthogonalPerimeter;outlineConnect=0;targetShapes=umlLifeline;portConstraint=eastwest;newEdgeStyle={&quot;edgeStyle&quot;:&quot;elbowEdgeStyle&quot;,&quot;elbow&quot;:&quot;vertical&quot;,&quot;curved&quot;:0,&quot;rounded&quot;:0};" vertex="1" parent="8C4lQhhiwzmuUXidtTxT-9">
          <mxGeometry x="45" y="70" width="10" height="190" as="geometry" />
        </mxCell>
        <mxCell id="8C4lQhhiwzmuUXidtTxT-11" value="" style="endArrow=open;html=1;rounded=0;endFill=0;" edge="1" parent="1">
          <mxGeometry width="50" height="50" relative="1" as="geometry">
            <mxPoint x="95" y="160" as="sourcePoint" />
            <mxPoint x="265" y="160" as="targetPoint" />
          </mxGeometry>
        </mxCell>
        <mxCell id="8C4lQhhiwzmuUXidtTxT-12" value="Select deposits" style="edgeLabel;html=1;align=center;verticalAlign=middle;resizable=0;points=[];" vertex="1" connectable="0" parent="8C4lQhhiwzmuUXidtTxT-11">
          <mxGeometry x="-0.3294" y="-3" relative="1" as="geometry">
            <mxPoint x="18" y="-23" as="offset" />
          </mxGeometry>
        </mxCell>
        <mxCell id="8C4lQhhiwzmuUXidtTxT-13" value="" style="endArrow=open;html=1;rounded=0;endFill=0;" edge="1" parent="1">
          <mxGeometry width="50" height="50" relative="1" as="geometry">
            <mxPoint x="89.5" y="214" as="sourcePoint" />
            <mxPoint x="269.5" y="214" as="targetPoint" />
          </mxGeometry>
        </mxCell>
        <mxCell id="8C4lQhhiwzmuUXidtTxT-14" value="Request withdraw" style="edgeLabel;html=1;align=center;verticalAlign=middle;resizable=0;points=[];" vertex="1" connectable="0" parent="8C4lQhhiwzmuUXidtTxT-13">
          <mxGeometry x="0.3056" y="-1" relative="1" as="geometry">
            <mxPoint x="-27" y="-11" as="offset" />
          </mxGeometry>
        </mxCell>
        <mxCell id="8C4lQhhiwzmuUXidtTxT-15" value="" style="endArrow=open;html=1;rounded=0;endFill=0;" edge="1" parent="1" target="8C4lQhhiwzmuUXidtTxT-9">
          <mxGeometry width="50" height="50" relative="1" as="geometry">
            <mxPoint x="269.5" y="260" as="sourcePoint" />
            <mxPoint x="480" y="260" as="targetPoint" />
          </mxGeometry>
        </mxCell>
        <mxCell id="8C4lQhhiwzmuUXidtTxT-16" value="call kratosx.withdrawRequest()" style="edgeLabel;html=1;align=center;verticalAlign=middle;resizable=0;points=[];" vertex="1" connectable="0" parent="8C4lQhhiwzmuUXidtTxT-15">
          <mxGeometry x="0.1286" y="1" relative="1" as="geometry">
            <mxPoint x="-16" y="-9" as="offset" />
          </mxGeometry>
        </mxCell>
        <mxCell id="8C4lQhhiwzmuUXidtTxT-17" value="" style="endArrow=oval;html=1;rounded=0;endFill=1;" edge="1" parent="1">
          <mxGeometry width="50" height="50" relative="1" as="geometry">
            <mxPoint x="533.5" y="280" as="sourcePoint" />
            <mxPoint x="734" y="280" as="targetPoint" />
          </mxGeometry>
        </mxCell>
        <mxCell id="8C4lQhhiwzmuUXidtTxT-18" value="event withdrawRequested()" style="edgeLabel;html=1;align=center;verticalAlign=middle;resizable=0;points=[];" vertex="1" connectable="0" parent="8C4lQhhiwzmuUXidtTxT-17">
          <mxGeometry x="0.0265" relative="1" as="geometry">
            <mxPoint x="13" y="-20" as="offset" />
          </mxGeometry>
        </mxCell>
      </root>
    </mxGraphModel>
  </diagram>
</mxfile>
